<svg xmlns="http://www.w3.org/2000/svg" viewBox="0 0 633.34 182.75"><defs><style>.cls-1{fill:#184e89;}.cls-2{fill:#144e8a;}.cls-3{fill:#5d6060;}.cls-4{fill:#145088;}.cls-5{fill:#ec8023;}.cls-6{fill:#5d5f60;}.cls-7{fill:#5c5e60;}.cls-8{fill:#175386;}.cls-9{fill:#ec8123;}</style></defs><g id="Layer_2" data-name="Layer 2"><g id="Layer_1-2" data-name="Layer 1"><path class="cls-1" d="M390.89,35.11c4.95-.07,8,3.21,8.05,8.8.05,6.37,0,12.73,0,19.1,0,4.61,2.26,7.22,5.94,7.16s5.66-2.57,5.7-7c.06-6.79.08-13.58,0-20.36-.1-7.94-3.84-13.89-10.81-17.43a18.37,18.37,0,0,0-20,1.54c-2,1.42-3,1.42-5,0a18.26,18.26,0,0,0-20-1.52c-7,3.56-10.68,9.48-10.78,17.44,0,3.25,0,6.51,0,9.76h0c0,3.39,0,6.79,0,10.18,0,4.71,2.09,7.3,5.75,7.34s5.85-2.5,5.89-7.21c.06-6.23,0-12.45,0-18.67,0-5.74,2.87-9.07,7.71-9.19,5.06-.12,8.12,3.24,8.18,9.16.07,6.36,0,12.73.05,19.09,0,4.42,2.15,6.83,5.77,6.82S383,67.72,383,63.28c.07-6.51,0-13,0-19.52.07-5.4,3-8.58,7.8-8.65"/><path class="cls-1" d="M139.8,61c.1,5.43,3.67,9,9.08,9.13,4,.11,7.92,0,11.88,0,16.05-.07,28.58-12,29.05-27.64.48-16.06-11.16-28.78-27.38-29.71-4.37-.25-8.76-.19-13.14,0-6.19.24-9.45,3.74-9.52,10.05s0,12.44,0,18.67h0c0,6.5-.09,13,0,19.5m14.32-36.66c3.64.21,7.32-.3,10.95.54a17.18,17.18,0,0,1,13,18.67c-.73,7.86-7.81,14.48-15.89,14.88-11,.53-11,.53-11-10.4V41.29c0-4.65.08-9.31,0-14,0-2.15.68-3.1,2.92-3"/><path class="cls-1" d="M633.28,18.89c-.08-3.64-2.47-6.08-5.66-6.13s-5.54,2.25-5.85,6a17.21,17.21,0,0,0,0,3c.25,3.14,0,4.6-4,3.05-9.7-3.8-20.1-.41-26.43,8a23.39,23.39,0,1,0,42,14.58c.07-4.38,0-8.77,0-13.15,0-5.09.09-10.18,0-15.27M609.73,58.46a11.68,11.68,0,0,1,.16-23.36,11.39,11.39,0,0,1,11.79,11.75,11.45,11.45,0,0,1-11.95,11.61"/><path class="cls-1" d="M268.43,23.86c-9.75-2-17.87,1.26-23.87,9.29-6.77,9.06-5.4,22.55,3,30.6,8.1,7.79,21.42,8.65,30,1.9,2.65-2.09,4.43-4.56,2.36-8-1.66-2.78-5.27-3.28-8.62-1.33-.85.5-1.63,1.14-2.51,1.58-5.36,2.66-12.49.69-14.93-4-.87-1.68-.91-2.57,1.37-2.53,4.39.07,8.77,0,13.16,0v0c3.68,0,7.36,0,11,0,6.89,0,8.69-2.17,7.17-8.9-2.22-9.86-8.12-16.5-18.14-18.56m2.65,18.38c-5.9-.09-11.81,0-18.25,0,2-5.29,5.35-7.55,10.15-7.78a9.87,9.87,0,0,1,9.51,5.09c1.07,1.75,1.16,2.76-1.41,2.72"/><path class="cls-1" d="M337.65,46.38C337.21,34.76,329,25.27,318,23.55c-11.28-1.76-22.38,4.71-25.79,15.45-3,9.41-1.24,18,6.12,24.9s15.65,7.86,24.83,4.56c1.4-.5,2.71-2.19,4.41-.09s4.14,2.37,6.56,1.24a6,6,0,0,0,3.52-5.82c0-3,0-5.95,0-8.92s.09-5.66,0-8.49M314.29,58.45a11.67,11.67,0,1,1,.07-23.34,11.67,11.67,0,0,1-.07,23.34"/><path class="cls-1" d="M525.09,69.59c2.45-1.15,3.38-3.3,3.41-5.89,0-3,0-5.94,0-8.91h-.27c0-3.67.34-7.38-.06-11A23.22,23.22,0,0,0,495.54,25.3a23.75,23.75,0,0,0-11.93,30.78A23.43,23.43,0,0,0,513.7,68.62c1.48-.56,2.95-2.44,4.82-.2,1.72,2.07,4.15,2.31,6.57,1.17M504.73,58.46a11.68,11.68,0,1,1,12.11-11.41,11.52,11.52,0,0,1-12.11,11.41"/><path class="cls-1" d="M540.65,70.16c3.57,0,5.69-2.43,5.77-6.88.09-5.08,0-10.17,0-15.26.09-7.77,4.65-12.87,11.51-12.93C565.14,35,569.79,40,569.91,48c.08,5.51-.06,11,.13,16.53.11,3.46,2.12,5.48,5.66,5.59,3.25.11,5.65-2.35,5.79-6,.13-3.25,0-6.5,0-9.75h0c0-2.83.07-5.66,0-8.48a23.32,23.32,0,0,0-46.61,0c-.14,5.79-.08,11.59,0,17.38,0,4.37,2.2,6.81,5.8,6.8"/><path class="cls-1" d="M363,88.45A17.64,17.64,0,0,0,346.66,118c6.1,6.16,13.2,7,21.54,3.39-2.74,8.45-8.92,10.4-15.23,5.37-2.46-2-4.86-2.61-7.06,0s-.84,4.72,1.18,6.65c5.36,5.1,11.72,6.29,18.46,3.83s10.71-7.87,11.21-15.11a155.44,155.44,0,0,0,0-17.8c-.36-7.61-6.26-14.14-13.77-15.79m-3.8,26.14a8.81,8.81,0,0,1,0-17.61,8.81,8.81,0,1,1,0,17.61"/><path class="cls-2" d="M308.5,80.18c-10.14.35-18.22,8.9-18.41,19.51,0,2.83,0,5.65,0,8.48h0c0,3.67-.07,7.35,0,11,.07,2.67,1.63,4.32,4.26,4.28s4.15-1.66,4.32-4.31a36.07,36.07,0,0,0,0-5.5c-.2-2.28.72-2.94,2.9-2.85,3.53.15,7.06,0,10.6,0,7.54,0,7.57,0,8,7.46.17,2.9,1.26,5.11,4.39,5.14s4.49-2.14,4.51-5c.05-6.64.29-13.3-.12-19.92a19.57,19.57,0,0,0-20.52-18.3m8.66,22c-2.54-.15-5.09,0-7.63,0s-5.37-.09-8,0c-2,.08-2.76-.49-2.75-2.61a10.78,10.78,0,0,1,21.53-.56c.14,2.42-.68,3.32-3.1,3.17"/><path class="cls-3" d="M506,167.81c-1.81,1.35-3.64,2.53-5.91.57,1.08-1.66,2.63-1.49,4.11-1.53.89-.67,1.8-1.33,2.67-2,1.6-1.28,2.29-3,1.46-4.87-.95-2.08-3-1.85-4.83-1.41a9.2,9.2,0,0,0-6.73,5.26,6.74,6.74,0,0,1-5.43,4.25c2.54-3.85.88-9.83,6.66-12,.67-.25,1-1.42.43-1.78-2.18-1.34-.87-2.78-.42-4.31.36-1.23,1.44-3-.35-3.6-1.48-.46-2,1.53-2.81,2.65-1.07,1.49-.26,4.09-3,4.64-1.94.4-3,1.32-.65,2.87,1.27.84.28,1.83,0,2.6a13.85,13.85,0,0,1-4.57,5.42c-2.51,3.13-5.42,5.29-9.85,4,3.21-2.3,8.47-2.73,8.13-7.92-.05-.42-.12-.86-.19-1.36a8.59,8.59,0,0,0-11.32,4.35,7.22,7.22,0,0,1-5.07,4.26,30.94,30.94,0,0,1,2.84-8.77c1.51-3.5,3.27-6.91,4-10.7.22-1.16.88-2.81-.67-3.34-1.71-.59-1.94,1.23-2.36,2.33-1.49,4-2.83,8-4.33,11.94-1.69,4.43-5.3,6.88-9.85,9.75a52.65,52.65,0,0,0,2.48-5.45c.6-1.92.21-4.42-1.77-4.55-3.4-.22-7.18-.57-10.18,1.66s-5.56,5.66-9.6,7.53c.16-2.51,1.49-3.92,2.08-5.63.42-1.22,1.85-2.61.15-3.75-1.44-1-2.66.2-3.78,1.06-1.35,1-2.66,2.13-4.1,3.29-.61-1.78,1.49-3.26-.21-4.33s-2.92.35-4.15,1.24-2.54,2-3.8,3c-.89-1.74,2.08-3.23.13-4.28s-2.42,1.22-3.36,2.4a35.3,35.3,0,0,1-3.25,3.34c-.69.66-1.37,1.83-2.4,1.4-1.43-.59-.55-1.9-.42-2.94.58-4.53-2.07-6.69-6.39-5.09a9,9,0,0,0-5.79,7.3c-.42,2.26-.44,4.67,1.78,6.13a5.47,5.47,0,0,0,6.39-.23,15.08,15.08,0,0,1,6.1-2.35c.89,1-.89,2.4.55,3s2-.59,2.84-1.35l6.47-6.07a3.6,3.6,0,0,1-.27,2.43c-.57,1.63-2.59,3.58-.78,4.87,1.55,1.12,2.88-1.2,4-2.35,1.61-1.66,3-3.55,4.89-5.86.76,2.47-.2,3.17-.43,4.09-.32,1.29-1.78,2.63-.46,3.88s2.89.32,4.32-.29c2.63-1.13,4.73-3.1,7.84-5.52-.93,2.42-1.49,3.69-1.92,5-1,2.95-2,5.89-2.76,8.89-.29,1.11-.75,2.82,1,3.14,1.39.26,1.74-1.13,2-2.24s.55-2.2.86-3.28c1.18-4.08,2.41-8.14,5.2-11.47,1.34-1.6,2.55-3.46,4.89-3.73.17,0,.62.62.59.9-.31,2.54-1.83,4.38-3.66,6a2.67,2.67,0,0,1-1.15.47c-.87.21-2.32-.22-2,1.36.26,1.42,1.6,1.25,2.75,1.31a14.67,14.67,0,0,0,11.27-4c.78,1.55-.11,4.91,2.19,3.77,4.21-2.1,7.69-1.2,11.66.19,2.14.75,4.38-.71,6.29-2,1.19-.78,2.3-1.69,3.61-2.67,0,1.7-1.3,3.23.17,4.3s2.94.13,4.38-.49c1.84-.78,3.23-3.08,5.72-.08,1.92,2.32,5.33,1.17,7.91-.17,1.82-.94,4.15-1.76,3.75-5.08l-3.6,2m-93.6-5.13c-2.4,1.43.43,6-3.72,6-1.77,0-1.61-1.61-1.54-2.9.51-2.34,1.42-4.39,4.09-4.75,1-.13,1.79,1.25,1.17,1.61m68.26-1.63c.58-.09,1.22.58,1,1.07-.89,2.21-2.73,2.86-5.12,2.91.62-2.39,2-3.66,4.09-4m23.43,0a.94.94,0,0,1,.88,1.44c-1,1.87-2.66,2.47-5,2.39.84-2.24,2-3.66,4.12-3.83"/><path class="cls-4" d="M446.79,70.17q12.49.06,25,0c4.76,0,7.26-2.06,7.25-5.77s-2.54-5.84-7.22-5.88c-5.78-.06-11.58-.11-17.36,0-2.38.06-3.2-.67-3.14-3.1.15-5.92.05-11.86.05-17.78s0-11.86,0-17.79c0-4.47-2.44-7.21-6-7.1s-5.62,2.62-5.63,7q-.06,21.6,0,43.2c0,5.25,1.95,7.16,7.13,7.18"/><path class="cls-1" d="M195.08,62.77c0,4.75,2,7.33,5.67,7.39s5.87-2.46,6-7.16c.11-5.93,0-11.87.07-17.8s3.34-9.81,8.58-10.08c5.47-.29,8.83,2.73,9.83,8.82.72,4.38,3,6.44,6.62,6.05s5.26-3,5-7.46c-.58-10.54-9.76-19.09-20.58-19.16-11.07-.08-20.44,8.32-21.08,19.06-.21,3.52,0,7.06,0,10.59h-.06c0,3.25,0,6.5,0,9.75"/><path class="cls-5" d="M282.05,115.76q-68.9-.06-137.79,0c-.57,0-1.14.05-1.7,0-2-.21-2.58.63-2.75,2.63-.29,3.34,1.41,3.56,4.05,3.56,22.89-.08,45.78-.05,68.68-.05h49.6c6.93,0,13.85-.11,20.77.08,3,.09,3.52-1.25,3.43-3.81-.12-3.38-2.56-2.4-4.29-2.4"/><path class="cls-1" d="M394.44,94c-4.94,5.49-5.73,12-3.14,18.62,4.21,10.79,18,14.36,26.85,7.2,2-1.64,3-3.59,1.48-5.88s-3.7-2.36-6-1.19c-.87.45-1.64,1.11-2.53,1.52-3.58,1.65-8,.81-10.06-2-.57-.75-1.48-1.56-.95-2.62.46-.9,1.51-.48,2.29-.49,3,0,5.94,0,8.91,0h4.24c1.42,0,2.83,0,4.24,0,4.65-.11,5.71-1.38,5-6.07-1.14-7.26-5.31-12.14-12.25-14.28s-13.17-.27-18.06,5.18m20.43,8H399.73c1.11-3.75,3.63-5.37,7.16-5.57,3.84-.23,6.4,1.62,8,5.57"/><path class="cls-4" d="M584,113.92c-1.39-2-3.48-2.3-5.66-1.33-.9.39-1.65,1.1-2.52,1.54-3.81,1.92-8.69.91-10.73-2.14-1.18-1.75-1.24-2.85,1.35-2.81,3.11,0,6.23,0,9.34,0,2.26,0,4.53,0,6.79,0,6.8,0,8.2-2,6.07-8.64a17.61,17.61,0,0,0-22.26-11.67,18,18,0,0,0-11,23.43c4.17,11,19.15,14.91,27.44,7.2,1.77-1.64,2.62-3.47,1.17-5.59M571.5,96.48c3.84-.11,6.24,1.87,8,5.75H563.83c1.46-3.86,3.95-5.64,7.67-5.75"/><path class="cls-1" d="M613.36,96.71a12.94,12.94,0,0,1,12,2.44c2.33,1.91,4.83,2.1,6.63-.48s.54-4.84-1.82-6.49a22.77,22.77,0,0,0-12.27-4.1,16.36,16.36,0,0,0-6.7,1c-6.53,2-9.83,6.14-9.29,11.44s4.73,8.35,11.73,8.84c2.11.14,4.25,0,6.35.19,1.85.21,4.5-.12,4.64,2.57s-2.34,2.79-4.27,3.15a14.34,14.34,0,0,1-11.55-3c-2.06-1.53-4.26-1.86-5.94.48s-.84,4.22,1.12,6c6.64,5.89,18.22,6.45,25.26,1.18a9.15,9.15,0,0,0,4-8.39c-.33-4.88-4.43-8.31-11.16-9-2.8-.3-5.65-.11-8.45-.41-1.3-.15-3-.4-3.18-2.24s1.36-2.69,2.91-3.08"/><path class="cls-2" d="M442.66,123.44c2.91-.12,4-2.2,4-5,0-4-.05-7.91,0-11.86.13-5.83,3.76-9.66,9-9.62s8.51,3.69,8.64,9.46c.08,4.09,0,8.18.07,12.28.05,2.79,1.44,4.68,4.32,4.7s4.28-1.82,4.32-4.65c0-2.4,0-4.8,0-7.2,0-2.12.06-4.24,0-6.35a17.5,17.5,0,0,0-35-.64c-.25,4.64-.09,9.31,0,14,0,3,1.46,5,4.58,4.87"/><path class="cls-1" d="M509.93,99.25c2.46,1.91,4.92,2.65,7,0s.74-5-1.54-6.92A17.62,17.62,0,0,0,503.57,88c-6.37.07-11.47,3.39-14.91,9.32-4.38,7.54-2.22,17.1,5,22.68a17.18,17.18,0,0,0,22.16-1.1c2.09-2,3.1-4.25,1.1-6.69s-4.43-2-6.7-.11a13.54,13.54,0,0,1-1.65,1.31,8.72,8.72,0,0,1-11.39-2.17,8.54,8.54,0,0,1,.29-11.24c3.36-3.76,8.09-4.15,12.46-.77"/><path class="cls-6" d="M561.83,168.13c3.13-1,5.73-1.72,7.59-3.76a4,4,0,0,0,1-4.3c-.68-1.84-2.36-1.89-3.92-1.69a9.23,9.23,0,0,0-7.66,5.33,7.17,7.17,0,0,1-5.28,4.24,47.37,47.37,0,0,1,4-11.09,31.52,31.52,0,0,0,3.11-8.75c.2-1.22.77-2.8-1-3.18-1.29-.29-1.76,1.06-2.15,2.17-1.16,3.33-2.64,6.58-3.51,10-1.34,5.25-5,8.33-10,10.51,1-2.15,1.91-4.3,2.83-6.46.31-.72,1.16-1.56.14-2.22a2,2,0,0,0-2.66.52c-1.28,1.5-2.27,3.4-3.84,4.47-3.62,2.47-1.47,5.46-.28,7.45s3.54,0,5.31-.68c1.51-.63,2.44-2.35,4.29-2.42.13,4.19,1.15,4.69,5.16,2.62,1.6-.82,2.57-2.64,4.83.1,2.83,3.43,10.84,0,11.75-4.86-3.08.62-5.42,4.3-9.74,2m4.71-6.95c.49.08.76.85.42,1.39-1.1,1.73-2.68,2.46-5.23,2.24,1.47-2.3,2.48-4,4.81-3.63"/><path class="cls-6" d="M633.3,148.51c0-1.25.19-2.86-1.14-3.41-1.72-.71-2.43,1.05-3.26,2.07a28.42,28.42,0,0,0-4.45,8.63c-.31.9-.36,2.46-1.35,2.46-5.66,0-8,3.82-10.26,8.07-.45.87-1.75,1.3-2.66,1.94l-.57-.6c.94-2.18,1.9-4.35,2.82-6.54.32-.74,1-1.67-.06-2.23a1.84,1.84,0,0,0-2.6.65,12.56,12.56,0,0,1-3.88,4.44c-3.45,2.37-1.31,5.35-.28,7.29s3.48.14,5.28-.5c1-.37,1.62-1.95,3.27-.72,3.57,2.67,11.13,2.66,14.89.25a12.21,12.21,0,0,0,1.68-1.28c.75-.7,1.44-1.66.61-2.56s-1.46.23-2.14.6c-1.21.65-2.15,2.22-4.18,1.18,1.1-1.58,2.11-2.92,3-4.33,3-4.69,5.37-9.64,5.26-15.41m-11.57,18.1a2.67,2.67,0,0,1-3.54,2c-1.7-.63-1.25-2.42-.79-3.65a5.42,5.42,0,0,1,5.29-3.76,46,46,0,0,1-1,5.37m8.75-16.93c-.08,4.33-2.11,7.95-4.27,11.53a23.21,23.21,0,0,1,4.27-11.53"/><path class="cls-4" d="M536.29,123.43c3.36,0,4.5-2.32,4.46-5.42,0-3.52,0-7.05,0-10.58s0-7.33,0-11c0-2.93-1.11-5.08-4.28-5.15s-4.44,2-4.44,5c0,7.34,0,14.67,0,22,0,3,1.17,5.16,4.27,5.18"/><path class="cls-6" d="M605.63,150.07c.71-2.63.1-4.53-3.34-4.43a11.67,11.67,0,0,0-7.71,3.69c-2.36,2.61-4.6,5.35-6.73,8.15-1.28,1.68-2.16,3.58-4.81,3.49-1.55-.05-2.49,2.25-1.9,2.57,3.68,2,.34,3.88.11,5.75-.1.87-1.41,1.89-.12,2.52a2.23,2.23,0,0,0,3.19-1.16c.75-1.67,1.47-3.36,2.28-5,.51-1,1.07-1.87,2.52-1.86a7.7,7.7,0,0,1,7.48,5.9c.27,1.24.64,2.31,2,2.18a2.14,2.14,0,0,0,2.1-2.64c-.45-2,.42-3.59.91-5.32,1.33-4.61,2.73-9.21,4-13.84m-7.46,12.51c-.45,1.47-1.39.91-2.28.3a15.84,15.84,0,0,0-6.13-2.27c3.44-4.66,6.41-9.08,12.54-12.3-1.59,5.51-2.8,9.91-4.13,14.27"/><path class="cls-7" d="M372.23,145.63a12.84,12.84,0,0,0-7.74,3.53,56,56,0,0,0-7,8.5c-1.13,1.61-2,3.42-4.49,3.27-1.6-.1-2.63,2.09-2.09,2.41,3.67,2.2.3,4.13,0,6.12-.1.83-1.55,1.81,0,2.42a2.17,2.17,0,0,0,2.95-.93c.79-1.65,1.48-3.36,2.29-5,.55-1.14,1.17-2.54,2.76-2.08,3.24,1,7.37.87,7.49,5.9,0,1.22.62,2.31,2.07,2.1a2,2,0,0,0,1.95-2.35c-.55-3,.93-5.52,1.63-8.21,1-3.83,2.27-7.58,3.3-11.4.65-2.42.15-4.27-3.16-4.27m-1,5.83c-1.19,4.06-2.4,8.1-3.71,12.54-2.43-1.54-4.67-2.91-7.86-3.28A41.93,41.93,0,0,1,368.92,150c.61-.5,1.39-1.21,2.24-.5.63.53.24,1.32,0,2"/><path class="cls-6" d="M399.7,154.93c-1.32,1.24-3,2.11-4.42,3.25-.92.73-1.66,1.94-1.12,3,.73,1.38,2,.41,2.95,0a16.29,16.29,0,0,0,7-5.91c1.66-2.44,2.68-5.18.5-7.81-2-2.45-4.91-2.29-7.4-1.13-7.34,3.43-12.22,9.1-13.53,17.21-.86,5.29,2.42,8.61,8.09,8.69a8.63,8.63,0,0,0,5.36-1.41c1.83-1.17,4.92-2.68,3.57-4.88-2-3.21-3.27.76-4.78,1.58-2.42,1.3-4.85,2.08-7.11.33s-2-4.2-1-6.58a22.61,22.61,0,0,1,8.48-10.82c1.65-1.07,3.87-2.37,5.34-.42s-.6,3.65-2,5"/><path class="cls-6" d="M543.12,146.14a1.69,1.69,0,0,0-2.29-.45c-4.09,3-9.21,2.23-13.65,3.87-1.72.63-3.6,1-5.06,2-2.28,1.57-1.33,3.57.32,4.92,1.48,1.21,3.19,3.73,5.34,1.55s-1.53-2.16-1.9-3.51a6.28,6.28,0,0,1-.1-.92,36.82,36.82,0,0,1,11.51-2.54c-2.33,7.77-6.07,14.54-9.81,21.35,3,1.15,4.6.13,5.84-2.48,3.38-7.11,5.73-14.69,9.86-21.45a2,2,0,0,0-.06-2.38"/><path class="cls-8" d="M536.38,88.83c2.64,0,4.08-1.59,4.37-4.25-.23-2.57-1.53-4.25-4.2-4.35-2.95-.12-4.49,1.63-4.47,4.43a3.87,3.87,0,0,0,4.3,4.17"/><path class="cls-7" d="M545.9,154.56a1.74,1.74,0,0,0,2.13,2,2.28,2.28,0,0,0,2-2.34,1.64,1.64,0,0,0-1.91-1.76,2.16,2.16,0,0,0-2.22,2.12"/><path class="cls-7" d="M611.44,154.43c-.12,1.28.51,2.21,1.94,2.11a2.21,2.21,0,0,0,2.1-2.22c-.06-1.12-.51-1.9-1.76-1.89a2.11,2.11,0,0,0-2.28,2"/><rect class="cls-5" x="139.77" y="115.63" width="146.57" height="6.35"/><path class="cls-9" d="M129.67,64.21H65.46V0h64.21ZM125.58,4.09h-56v56h56Z"/><path class="cls-9" d="M64.21,130H0V65.82H64.21ZM60.12,69.91h-56v56h56Z"/><rect class="cls-1" x="6.35" y="6.68" width="57.17" height="57.17"/><rect class="cls-1" x="66.21" y="66.54" width="57.17" height="57.17"/></g></g></svg>